#N canvas 480 111 1440 845 12;
#X declare -path ../;
#X declare -lib tresf;
#X floatatom 261 500 5 0 0 0 - - -;
#X msg 261 520 all \$1;
#X msg 379 519 all \$1;
#X obj 144 514 prepend next;
#X floatatom 379 497 5 0 0 0 - - -;
#X floatatom 90 437 5 0 0 0 - - -;
#X msg 139 464 ampjitter \$1;
#X floatatom 139 441 5 0 0 0 - - -;
#X obj 103 414 hsl 128 15 0 1 0 0 empty empty empty -2 -8 0 10 -262144
-1 -1 11430 1;
#X msg 21 232 \; pd dsp 1;
#X msg 21 269 \; pd dsp 0;
#X obj 261 478 r time;
#X obj 99 392 r proba;
#X obj 1018 17 declare -path ../;
#X obj 90 490 tresf, f 16;
#X obj 1020 89 table \$0-audioin;
#X obj 1020 375 soundfiler;
#X obj 1020 331 f \$0;
#X obj 1020 313 bng 15 250 50 0 empty empty empty 17 7 0 10 -262144
-1 -1;
#X msg 1020 354 read -resize audio/cordas.wav \$1-audioin;
#X obj 234 280 tabplay~ \$0-audioin;
#X msg 255 259 stop;
#X msg 255 237 bang;
#X obj 1020 292 loadbang;
#X text 293 235 play;
#X text 293 257 stop;
#X obj 1018 38 declare -lib tresf;
#X obj 145 565 send~ oscsout;
#N canvas 291 294 864 618 OUT 0;
#X obj 53 295 *~;
#X obj 139 434 dac~;
#X obj 149 398 *~;
#X obj 156 24 vsl 30 100 0 100 0 0 empty empty empty 0 -9 0 10 -262144
-1 -1 9900 1;
#X obj 361 236 dbtorms;
#X obj 361 278 line~;
#X msg 361 257 \$1 10;
#X text 153 1 main out;
#X obj 15 24 vsl 20 100 0 100 0 0 empty empty empty 0 -9 0 10 -262144
-1 -1 9900 1;
#X obj 71 230 dbtorms;
#X obj 71 272 line~;
#X msg 71 251 \$1 10;
#X obj 203 295 *~;
#X obj 81 24 vsl 20 100 0 100 0 0 empty empty empty 0 -9 0 10 -262144
-1 -1 9504 1;
#X obj 231 230 dbtorms;
#X obj 231 272 line~;
#X msg 231 251 \$1 10;
#X obj 65 -45 r oscs_dB;
#X obj 289 -58 r mainOut_dB;
#X obj -7 267 r~ oscsout;
#X floatatom 156 131 5 0 0 0 - - -;
#X floatatom 81 131 5 0 0 0 - - -;
#X floatatom 15 131 5 0 0 0 - - -;
#X text 2 1 osc bank;
#X text 71 1 in/file;
#X obj 222 -48 r in_dB;
#X obj 119 270 r~ insig;
#X connect 0 0 2 0;
#X connect 2 0 1 0;
#X connect 2 0 1 1;
#X connect 3 0 4 0;
#X connect 3 0 20 0;
#X connect 4 0 6 0;
#X connect 5 0 2 1;
#X connect 6 0 5 0;
#X connect 8 0 9 0;
#X connect 8 0 22 0;
#X connect 9 0 11 0;
#X connect 10 0 0 1;
#X connect 11 0 10 0;
#X connect 12 0 2 0;
#X connect 13 0 14 0;
#X connect 13 0 21 0;
#X connect 14 0 16 0;
#X connect 15 0 12 1;
#X connect 16 0 15 0;
#X connect 17 0 8 0;
#X connect 18 0 3 0;
#X connect 19 0 0 0;
#X connect 25 0 13 0;
#X connect 26 0 12 0;
#X connect 26 0 1 1;
#X coords 0 -1 1 1 250 170 2 0 0;
#X restore 47 624 pd OUT;
#X obj 1020 151 loadbang;
#X obj 379 476 r attack;
#X msg 546 300 \; proba 0.086 \; time 2 \; attack 400 \; ampthresh
60 \;;
#N canvas 526 48 1083 757 signal_analysis 0;
#X obj 300 159 route 0 1 2, f 12;
#X msg 300 185 \$1;
#X msg 333 185 \$1;
#X msg 367 185 \$1;
#X obj 300 210 pack 0 0 0;
#X obj 275 255 list;
#X obj 300 111 sigmund~ -npts 4096 -hop 2048 -npeak 3 -maxfreq 5000
-stabletime 100 -minpower 80 -vibrato 0.5 -growth 10 peaks, f 68;
#X floatatom 142 128 5 0 0 0 - - -;
#X obj 202 177 vsl 20 100 0 100 0 0 empty empty empty 0 -9 0 10 -262144
-1 -1 0 1;
#X obj 142 106 env~ 4096 1024;
#X obj 152 243 sel 1;
#X obj 152 267 bng 15 250 50 0 empty empty empty 17 7 0 10 -262144
-1 -1;
#X obj 152 199 > 78;
#X obj 152 221 change;
#X text 16 108 cheap attack det.;
#X obj 177 153 r ampthresh;
#X obj 275 281 s \$0-tresf;
#X obj 200 45 receive~ insig;
#X connect 0 0 1 0;
#X connect 0 1 2 0;
#X connect 0 2 3 0;
#X connect 1 0 4 0;
#X connect 2 0 4 1;
#X connect 3 0 4 2;
#X connect 4 0 5 1;
#X connect 5 0 16 0;
#X connect 6 0 0 0;
#X connect 7 0 8 0;
#X connect 7 0 12 0;
#X connect 9 0 7 0;
#X connect 10 0 11 0;
#X connect 11 0 5 0;
#X connect 12 0 13 0;
#X connect 13 0 10 0;
#X connect 15 0 12 1;
#X connect 17 0 9 0;
#X connect 17 0 6 0;
#X restore 145 587 pd signal_analysis;
#X obj 14 462 r \$0-tresf;
#X obj 234 302 send~ insig;
#X msg 1019 172 \; proba 0.9 \; time 10 \; attack 670 \; ampthresh
72 \; oscs_dB 100 \; in_dB 96 \; mainOut_dB 100 \;;
#X obj 144 543 clone osc_abs 16, f 34;
#X text 14 9 Simple example using tresf ("3f synthesis" object) to
control a bank of oscillators.;
#X text 154 45 patch: Vinicius Cesar de Oliveira;
#X text 1149 39 load tresf lib;
#X text 1143 17 locate of tresf lib;
#X text 1140 89 place to store example in audio;
#X text 1088 151 loadbang parameters;
#X text 14 86 obs: this patch uses Miller Puckette [sigmund~] object
to work. See [pd signal-analysis].;
#X text 18 203 1 turn DSP on;
#X text 220 202 2 play;
#X text 546 276 change parameters...;
#X connect 0 0 1 0;
#X connect 1 0 36 1;
#X connect 2 0 36 2;
#X connect 3 0 36 0;
#X connect 4 0 2 0;
#X connect 5 0 14 0;
#X connect 6 0 14 0;
#X connect 7 0 6 0;
#X connect 8 0 5 0;
#X connect 11 0 0 0;
#X connect 12 0 8 0;
#X connect 14 1 3 0;
#X connect 17 0 19 0;
#X connect 18 0 17 0;
#X connect 19 0 16 0;
#X connect 20 0 34 0;
#X connect 21 0 20 0;
#X connect 22 0 20 0;
#X connect 23 0 18 0;
#X connect 29 0 35 0;
#X connect 30 0 4 0;
#X connect 33 0 14 0;
#X connect 36 0 27 0;
