#N canvas 617 42 993 986 12;
#X obj 66 125 unpack 0 0 0, f 18;
#X obj 75 654 *~;
#X obj 194 213 t b f;
#X obj 272 111 inlet;
#X obj 256 274 expr 20000/(100-$f2)*$f1*$f1/2500;
#X obj 470 347 t f b b, f 15;
#X obj 470 378 f;
#X obj 470 408 * 0.2;
#X obj 470 436 sqrt;
#X obj 470 463 sqrt;
#X obj 503 511 pack 0 0 0;
#X obj 65 60 inlet;
#X obj 532 462 inlet;
#X floatatom 262 328 5 0 0 0 - - -;
#X obj 255 236 int 50;
#X text 531 435 tempo de ataque;
#X text 268 88 duração;
#X msg 607 478 0.0001;
#X obj 76 684 outlet~;
#X obj 73 557 osc~;
#X floatatom 209 152 5 0 0 0 - - -;
#X text 64 15 freq \, amp(100 = 0db) damping;
#X obj 65 95 t l b;
#X obj 132 256 dbtorms;
#X obj 288 191 clip 3 100;
#X floatatom 496 181 5 0 0 0 - - -;
#X obj 484 238 min 99;
#X obj 367 609 *~;
#X obj 367 643 *~;
#N canvas 0 23 450 300 ramp_in_out 0;
#X obj 63 24 inlet;
#X obj 57 257 outlet;
#X obj 151 114 del;
#X obj 62 55 t l b l;
#X msg 167 170 0;
#X obj 167 195 pack 0 0;
#X msg 56 164 0 \, \$1 \$2;
#X msg 170 81 \$2;
#X msg 244 36 \$3;
#X connect 0 0 3 0;
#X connect 2 0 4 0;
#X connect 3 0 6 0;
#X connect 3 1 2 0;
#X connect 3 2 7 0;
#X connect 3 2 8 0;
#X connect 4 0 5 0;
#X connect 5 0 1 0;
#X connect 6 0 1 0;
#X connect 7 0 2 1;
#X connect 8 0 5 1;
#X restore 503 535 pd ramp_in_out;
#X msg 694 487 1 1000 2000;
#X obj 486 564 line~;
#X connect 0 0 19 0;
#X connect 0 1 23 0;
#X connect 0 2 2 0;
#X connect 0 2 20 0;
#X connect 1 0 18 0;
#X connect 2 0 14 0;
#X connect 2 1 26 0;
#X connect 3 0 24 0;
#X connect 4 0 10 2;
#X connect 4 0 13 0;
#X connect 5 0 6 0;
#X connect 6 0 7 0;
#X connect 7 0 8 0;
#X connect 8 0 9 0;
#X connect 9 0 10 0;
#X connect 10 0 29 0;
#X connect 11 0 22 0;
#X connect 12 0 10 1;
#X connect 14 0 4 0;
#X connect 17 0 10 1;
#X connect 19 0 1 0;
#X connect 22 0 0 0;
#X connect 23 0 5 0;
#X connect 24 0 14 1;
#X connect 25 0 26 0;
#X connect 26 0 4 1;
#X connect 27 0 28 0;
#X connect 27 0 28 1;
#X connect 28 0 1 1;
#X connect 29 0 31 0;
#X connect 30 0 29 0;
#X connect 31 0 27 1;
#X connect 31 0 27 0;
